<svg width="400" height="400" viewBox="0 0 400 400" fill="none" xmlns="http://www.w3.org/2000/svg">
<path d="M301.914 315.943C288.95 319.999 277.281 320.729 266.91 318.133C256.052 315.213 246.652 310.67 238.712 304.505C231.095 298.341 223.316 290.959 215.375 282.361L87.2683 140.244V261.919C87.4304 267.597 89.9423 271.815 94.804 274.573C97.0728 275.871 99.5037 276.52 102.097 276.52H106.715V278.954H56.6393V276.52H61.258C65.3094 276.52 68.7937 275.141 71.7107 272.383C74.6278 269.463 76.0863 265.894 76.0863 261.676V128.077C75.276 126.941 73.6554 124.832 71.2245 121.75C68.7937 118.505 66.7679 115.909 65.1474 113.963C63.5268 112.016 61.339 109.501 58.584 106.419C55.829 103.174 53.2361 100.578 50.8052 98.6315C48.5364 96.6847 45.8624 94.4135 42.7833 91.8177C37.9216 88.0864 32.7357 85.4095 27.2258 83.7872C21.7158 82.1649 17.0971 81.3537 13.3698 81.3537C9.4804 81.3537 5.34792 82.0026 0.972347 83.3005L0 80.867C7.77879 77.6223 15.3145 76 22.6071 76C29.7377 76 35.8959 76.8923 41.0817 78.6769C46.2676 80.2992 51.8586 83.3005 57.8548 87.6808C63.8509 92.0611 68.7127 96.1169 72.44 99.8483C76.3294 103.58 80.948 108.447 86.296 114.449L208.812 250.725V125.887C208.65 121.669 207.11 118.181 204.193 115.423C201.276 112.502 197.792 111.042 193.74 111.042H189.122V108.609H219.751V263.136C221.371 264.921 223.64 267.597 226.557 271.167C229.636 274.736 231.743 277.25 232.878 278.71C234.174 280.17 236.038 282.279 238.469 285.037C240.899 287.795 242.925 289.904 244.546 291.365C246.328 292.987 248.435 294.934 250.866 297.205C253.459 299.638 255.809 301.504 257.915 302.802C260.184 304.262 262.696 305.884 265.451 307.669C269.341 309.94 273.716 311.644 278.578 312.779C283.602 313.915 287.653 314.483 290.732 314.483C293.973 314.483 297.377 314.158 300.942 313.509L301.914 315.943Z" fill="white"/>
<path d="M381.768 323C387.116 323 393.194 322.108 400 320.323V317.89C398.055 318.214 396.111 318.376 394.166 318.376C384.767 318.376 375.286 315.781 365.725 310.589C361.025 308.156 355.596 304.343 349.438 299.152C343.442 294.122 336.473 287.633 328.532 279.684C320.591 271.734 302.603 252.266 274.567 221.28C267.598 213.493 261.359 206.679 255.849 200.838H256.092C267.598 200.838 277.322 196.134 285.263 186.724C293.204 177.152 297.174 165.796 297.174 152.655C297.174 139.352 292.799 128.726 284.047 120.776C275.458 112.665 264.033 108.609 249.772 108.609H218.657V116.153H248.8C258.361 116.315 265.735 119.965 270.921 127.103C276.269 134.242 278.943 143.732 278.943 155.575C278.943 169.852 274.162 180.073 264.6 186.237C262.17 188.022 259.171 189.482 255.606 190.618C252.041 191.591 248.638 192.321 245.396 192.808C242.317 193.132 236.078 193.295 226.679 193.295V195.728C229.758 196.053 234.133 199.378 239.805 205.705C245.478 212.033 256.984 224.849 274.324 244.155C291.664 263.298 303.332 276.358 309.328 283.334C315.487 290.31 322.293 296.799 329.748 302.802C333.799 306.371 337.851 309.372 341.902 311.806C345.954 314.239 350.248 316.348 354.786 318.133C359.485 320.08 363.861 321.378 367.912 322.027C371.964 322.676 376.583 323 381.768 323Z" fill="white"/>
</svg>
